PathFileType	4	(X/Y/Z)	C:\Users\Biomechanik\SynologyDrive\AlexP\Athlete_03\Athlete_3_25_03_31\Walking_06\marker_experimental.trc
DataRate	CameraRate	NumFrames	NumMarkers	Units	OrigDataRate	OrigDataStartFrame	OrigNumFrames
200.000000	200.000000	4	53	mm	200.000000	166	445
Frame#	Time	GLAB			RFHD			LFHD			C7			T6			SPINMOL			SPINM2			SPINM3			T12			BELTOL			BELT2			BELT3			SACROL			SACR2			SACR3			LTHOL			LTH2			LTH3			LSHAOL			LSHA2			LSHA3			LHEE			LTOE			LM5			RTHOL			RTH2			RTH3			RSHAOL			RSHA2			RSHA3			RHEE			RTOE			RM5			STRN			XIPH			LACR			LUAOL			LUA2			LUA3			LLAOL			LLA2			LLA3			LWRR			LWRU			RACR			RUAOL			RUA2			RUA3			RLAOL			RLA2			RLA3			RWRR			RWRU			
		X1	Y1	Z1	X2	Y2	Z2	X3	Y3	Z3	X4	Y4	Z4	X5	Y5	Z5	X6	Y6	Z6	X7	Y7	Z7	X8	Y8	Z8	X9	Y9	Z9	X10	Y10	Z10	X11	Y11	Z11	X12	Y12	Z12	X13	Y13	Z13	X14	Y14	Z14	X15	Y15	Z15	X16	Y16	Z16	X17	Y17	Z17	X18	Y18	Z18	X19	Y19	Z19	X20	Y20	Z20	X21	Y21	Z21	X22	Y22	Z22	X23	Y23	Z23	X24	Y24	Z24	X25	Y25	Z25	X26	Y26	Z26	X27	Y27	Z27	X28	Y28	Z28	X29	Y29	Z29	X30	Y30	Z30	X31	Y31	Z31	X32	Y32	Z32	X33	Y33	Z33	X34	Y34	Z34	X35	Y35	Z35	X36	Y36	Z36	X37	Y37	Z37	X38	Y38	Z38	X39	Y39	Z39	X40	Y40	Z40	X41	Y41	Z41	X42	Y42	Z42	X43	Y43	Z43	X44	Y44	Z44	X45	Y45	Z45	X46	Y46	Z46	X47	Y47	Z47	X48	Y48	Z48	X49	Y49	Z49	X50	Y50	Z50	X51	Y51	Z51	X52	Y52	Z52	X53	Y53	Z53	

167	0.8300000000000001	725.6602172851561	1601.180297851562	167.0140686035158	675.7988891601561	1632.319946289062	229.9105224609376	684.5227050781249	1622.533081054688	91.75795745849622	496.7176208496092	1446.315185546875	162.8477935791016	439.0733642578124	1275.91650390625	166.0527343750001	431.8652954101562	1235.511352539062	145.8582153320313	425.6242065429686	1229.180786132812	195.399642944336	436.3028259277343	1171.822143554688	163.4870910644532	460.1006774902343	1106.667114257812	167.5471191406251	425.3829040527343	1073.195556640625	150.9655761718751	423.6787719726561	1071.025756835938	201.4204254150391	419.614044189453	1011.232055664062	172.0121002197266	435.8060913085936	961.3275756835938	155.2620544433595	437.9969482421874	958.9512329101562	206.682830810547	423.4370727539061	900.4931640625	179.049285888672	546.422119140625	677.6010131835938	1.471357583999734	498.7581481933593	620.4229125976562	28.97252464294443	547.3423461914062	618.242919921875	16.94509315490733	540.3834228515625	321.8983764648438	24.47186470031748	490.6575927734375	261.1069335937501	37.99167251586923	540.7401123046875	260.3749694824219	33.43323516845713	468.314453125	71.07730865478518	131.170883178711	687.1182250976562	46.27156448364262	127.8666610717775	637.841552734375	30.44418716430668	27.10094261169445	578.3684082031249	680.9154052734375	379.6348571777345	646.5351562499999	647.1248779296875	402.3929748535157	607.5823364257811	626.427978515625	379.2315673828126	553.0518188476561	424.9068298339844	375.7688903808595	531.4412841796874	349.6355285644532	370.094207763672	507.7572631835937	388.9427490234376	352.3389892578126	359.2549133300781	259.6870422363281	219.279037475586	483.8212280273437	90.74507141113284	255.2095642089845	422.7916564941406	120.2522201538086	343.0375671386719	667.2623901367186	1346.34716796875	169.3138732910157	684.6749267578124	1202.605346679688	175.6721191406251	574.3198242187499	1403.341552734375	-8.133530616760149	567.5565795898436	1248.462890625	-108.2156143188476	554.9217529296874	1186.522338867188	-127.564224243164	601.1782836914061	1191.759399414062	-105.9735641479491	606.2152099609374	987.4512329101562	-156.1417388916014	578.1121826171875	915.4421997070312	-139.9728240966796	623.9310913085936	928.5435180664062	-154.7510375976561	662.9470825195312	832.4282836914062	-155.6489257812499	705.4606323242188	843.163330078125	-89.0866775512694	576.3848876953123	1409.7607421875	334.580535888672	556.5626220703123	1266.874267578125	439.5422973632814	580.1127929687498	1205.817260742188	450.3229064941407	530.9352416992185	1210.841186523438	464.0581665039064	571.9891357421873	992.6329956054688	505.6194763183595	633.2089843749998	948.1497802734375	532.1248779296876	590.6281738281248	932.4977416992188	510.860565185547	638.7196655273436	857.12451171875	526.2836914062501	673.7855224609374	843.0873413085938	454.1538391113282	
168	0.835	732.4101562499999	1601.5185546875	167.2344055175783	682.5242309570311	1632.571044921875	230.1495208740236	691.3394165039061	1623.0478515625	91.98545837402357	503.405303955078	1446.767700195312	162.6370544433595	445.7437744140624	1276.343017578125	165.6258087158204	438.5266418457031	1235.938720703125	145.4048461914063	432.3126220703124	1229.57763671875	194.934066772461	442.9968261718749	1172.24462890625	163.0127105712891	466.803985595703	1107.105590820312	167.1299438476563	431.8766174316406	1073.581298828125	150.7862091064454	430.2704467773436	1071.429809570312	201.2413940429688	426.1878967285155	1011.622497558594	171.8666076660157	442.3484802246093	961.708984375	155.3401641845704	444.6824645996093	959.5074462890625	206.792953491211	429.986114501953	900.9574584960938	179.3525848388673	550.0425415039062	678.322265625	1.274873614311319	502.0444946289062	621.6766357421875	29.33370780944833	550.5311889648438	618.9380493164062	16.95277214050303	541.3597412109375	322.3706970214844	24.61474990844737	491.4125061035156	261.7898864746094	38.27699661254892	541.4913940429688	260.8578186035157	33.67859268188487	468.6518859863281	71.63279724121097	131.3987731933595	687.2659301757812	46.17579269409184	127.9001922607423	637.8699951171875	30.45912933349613	27.1236152648927	588.2197875976561	681.734375	379.8224487304689	657.0765991210936	648.7201538085938	401.5615844726564	617.9842529296874	627.58642578125	379.113983154297	565.9938964843749	423.1856994628907	374.9766845703126	546.3203124999999	347.4607849121094	368.6546630859376	521.4155273437499	386.3092956542969	351.621063232422	375.2100524902343	253.5154113769532	218.1099548339844	505.6929016113281	89.16381835937503	254.3435821533204	443.7640686035156	116.7349624633789	342.1506347656251	673.8393554687499	1346.796264648438	169.1287231445314	691.2691040039061	1203.0439453125	175.2725067138673	580.9899902343749	1404.033935546875	-8.308975219726456	575.0511474609374	1249.371337890625	-108.7366180419921	562.7770996093749	1187.3701171875	-128.1056060791014	609.0187988281249	1192.876342773438	-106.5075302124022	616.3827514648436	988.6967163085938	-156.7447662353514	589.3134765625	916.3147583007812	-140.5450134277343	634.9874267578124	930.0880737304688	-155.1584625244139	675.5240478515625	834.6148681640625	-155.6984252929686	717.6112670898438	846.1900634765625	-89.01982879638659	582.888488769531	1409.98974609375	334.4188537597657	562.140686035156	1267.153198242188	439.3937377929689	585.431457519531	1206.005493164062	450.3252868652345	536.1660156249998	1211.199096679688	463.692108154297	576.0194702148435	993.0643920898438	505.838836669922	636.7233886718748	948.174560546875	532.7855224609376	594.2128295898435	932.7852172851562	511.3003845214845	641.5755615234374	857.0714721679688	527.1869506835939	676.8644409179686	842.5435791015625	455.2842712402345	
169	0.84	739.1655883789061	1601.804321289062	167.4801177978517	689.2536010742186	1632.766357421875	230.4133911132814	698.1602172851561	1623.508666992188	92.23931884765638	510.1012268066405	1447.167846679688	162.448944091797	452.4119262695311	1276.721313476562	165.2326660156251	445.1794433593749	1236.316528320312	144.9883880615235	438.9958190917968	1229.928833007812	194.5069274902345	449.6814575195311	1172.618530273438	162.5789947509766	473.4980163574218	1107.490600585938	166.760238647461	438.3552551269531	1073.895141601562	150.6734466552735	436.8573608398436	1071.767578125	201.1286163330079	432.7459411621093	1011.941284179688	171.7923583984376	448.8679809570311	962.0346069335938	155.4517974853516	451.366729736328	959.9818725585938	206.9288330078126	436.5379943847655	901.3516845703125	179.663787841797	553.6983032226562	679.0189819335938	1.088617086410624	505.3645935058593	622.893798828125	29.66555023193369	553.7492065429688	619.61767578125	16.95452117919932	542.4086303710938	322.8432922363282	24.76052093505869	492.2344665527344	262.4715270996094	38.53152465820322	542.3124389648438	261.3426513671876	33.92779159545908	468.99609375	72.21364593505862	131.6229400634766	687.4164428710938	46.07863616943364	127.9353103637697	637.9061279296875	30.48180007934574	27.14872169494641	598.0122070312499	682.5108642578125	380.0166625976564	667.5151977539061	650.25927734375	400.7057495117189	628.2860107421874	628.7158813476562	378.9866333007814	578.8790893554686	421.3026733398438	374.1739807128907	561.2211914062499	345.1478576660157	367.2147827148439	535.0712890624999	383.4787902832032	350.9013977050782	391.3859863281249	247.0590972900391	217.039535522461	527.6929321289062	87.55837249755862	253.5165252685548	464.9346008300781	113.1137390136719	341.3164062500001	680.4215087890624	1347.176025390625	168.9653320312501	697.8495483398436	1203.412841796875	174.889602661133	587.6681518554686	1404.658569335938	-8.461504936218153	582.5341796874999	1250.225463867188	-109.2315063476561	570.6071166992186	1188.170776367188	-128.6237945556639	616.8417968749999	1193.93896484375	-107.0323410034179	626.5256958007811	989.9130859375	-157.3280487060546	600.5053100585938	917.169921875	-141.0796661376952	646.0169677734374	931.6189575195312	-155.5402832031249	688.0667114257812	836.81005859375	-155.7091522216796	729.7273559570312	849.2330932617188	-88.92816162109362	589.4031982421873	1410.158081054688	334.2798156738282	567.7174682617185	1267.374755859375	439.2592163085939	590.7443847656248	1206.135864257812	450.3393554687501	541.3891601562498	1211.503295898438	463.334686279297	580.0346679687498	993.4346923828125	506.0540771484376	640.2132568359373	948.1547241210938	533.4614257812501	597.7987060546873	933.0230102539062	511.7270507812501	644.4381103515624	856.983642578125	528.0803833007814	679.9936523437499	841.9926147460938	456.4239196777345	
170	0.845	745.9279174804686	1602.036499023438	167.7493896484376	695.9888305664061	1632.9052734375	230.7003479003907	704.9862670898436	1623.91357421875	92.51776123046888	516.8056640624999	1447.5146484375	162.2834930419923	459.0781860351561	1277.050415039062	164.8741302490235	451.8240966796874	1236.643676757812	144.609848022461	445.6741333007811	1230.233520507812	194.1194000244141	456.356964111328	1172.94287109375	162.1868591308595	480.1828308105468	1107.822143554688	166.4380035400391	444.8220214843749	1074.142944335938	150.6242828369141	443.4422302246093	1072.044189453125	201.0791168212891	439.289337158203	1012.194091796875	171.7855987548829	455.3653869628905	962.3084716796875	155.5968170166016	458.0489807128905	960.3775634765625	207.090560913086	443.0955505371093	901.6787109375	179.9806671142579	557.3946533203125	679.6876831054688	0.910935461521251	508.7210693359374	624.0706787109375	29.96322441101083	557.000244140625	620.2780151367188	16.94744300842295	543.53076171875	323.3141784667969	24.90740776062022	493.123779296875	263.1500854492188	38.75297164917001	543.203369140625	261.8271789550782	34.17707443237315	469.3430786132812	72.81850433349612	131.8434600830079	687.56884765625	45.98022079467778	127.9718322753908	637.9505004882812	30.51184844970707	27.1772975921632	607.7415771484374	683.2385864257812	380.2097778320314	677.8463134765624	651.7342529296875	399.823211669922	638.4842529296874	629.8092651367188	378.8442993164064	591.7146606445311	419.2732849121094	373.3530883789064	576.1394042968749	342.7185058593751	365.7859802246095	548.7312622070311	380.4698791503907	350.1752319335939	407.7910156249999	240.341293334961	216.0738525390626	549.8087768554688	85.94536590576175	252.7306976318361	486.2952270507812	109.4063949584961	340.5387268066407	687.0098876953124	1347.485107421875	168.8238983154298	704.4141235351561	1203.710205078125	174.523406982422	594.3554687499999	1405.21435546875	-8.590780258178603	590.0083618164061	1251.023315429688	-109.698760986328	578.4173583984374	1188.92236328125	-129.1202545166014	624.6505737304686	1194.94580078125	-107.5459747314452	636.6465454101561	991.1001586914062	-157.8906707763671	611.6864624023438	918.0081787109375	-141.5804748535155	657.0204467773436	933.1350708007812	-155.8967895507811	700.5704956054688	839.0107421875	-155.6813049316405	741.8046264648438	852.2879638671875	-88.8107757568358	595.9284057617185	1410.26513671875	334.1636352539064	573.297180175781	1267.5380859375	439.1377563476564	596.0562744140623	1206.208374023438	450.3641052246095	546.610168457031	1211.7529296875	462.9869079589845	584.0400390624998	993.7432250976562	506.2642211914064	643.683898925781	948.0885620117188	534.1501464843751	601.3901367187498	933.2094116210938	512.1404418945314	647.3097534179686	856.857421875	528.9623413085939	683.1784057617186	841.4317626953125	457.5715332031251	
